<?xml version="1.0" encoding="UTF-8"?>
<svg id="a" data-name="vodkabet" xmlns="http://www.w3.org/2000/svg" viewBox="0 0 512 512">
  <defs>
    <style>
      .h {
        fill: #fffdfd;
      }

      .i {
        fill: #eff2fc;
      }

      .j {
        fill: #0c1523;
      }

      .k {
        fill: none;
      }

      .l {
        fill: #469ffd;
      }
    </style>
  </defs>
  <g id="b" data-name="Слой 1">
    <path class="k" d="M0,512V0C170.67,.31,341.33,.62,512,.92V512H0Z"/>
  </g>
  <g id="c" data-name="Слой 5">
    <path d="M421.57,401.12c5.89-5.09,7.91-11.26,8.57-13.71,10.43-79.29,20.86-158.57,31.29-237.86,.13-1.86,.83-15.02-9.43-24.86-8.4-8.06-18.57-8.53-21-8.57-38.71-.29-77.43-.57-116.14-.86-1.89,97.16-3.78,194.33-5.68,291.49,33.46,.12,66.93,.24,100.39,.37,2.49-.55,7.35-1.99,12-6Z"/>
  </g>
  <g id="d" data-name="Слой 6">
    <path class="j" d="M410.26,392.52c4.33-3.61,5.81-7.99,6.29-9.72,7.66-56.22,15.32-112.44,22.98-168.66,.1-1.32,.61-10.65-6.92-17.63-6.17-5.71-13.64-6.04-15.42-6.08-28.43-.2-56.86-.41-85.3-.61-1.39,68.9-2.78,137.79-4.17,206.69,24.58,.09,49.15,.17,73.73,.26,1.83-.39,5.4-1.41,8.81-4.25Z"/>
  </g>
  <g id="e" data-name="Слой 2">
    <path class="l" d="M181.81,446.52c-44.01-83.1-88.01-166.2-132.02-249.29-1.09-3.51-2.97-11.35-.65-20.86,2.71-11.08,9.53-17.8,12.26-20.23,73.99-32.87,147.99-65.73,221.98-98.6,3.92-.32,11.31-.38,19.36,3.16,13.94,6.13,19.41,18.47,20.65,21.49,20.43,89.12,40.87,178.24,61.3,267.36,.59,3,1.31,8.85-.65,15.8-1.96,6.96-5.66,11.62-7.74,13.91-57.88,24.76-115.76,49.52-173.63,74.28-1.71,.61-4.77,1.42-8.5,.88-7.5-1.09-11.6-6.79-12.37-7.9Z"/>
  </g>
  <g id="f" data-name="Слой 3">
    <path class="h" d="M199.43,411.4c-31.71-59.9-63.43-119.81-95.14-179.71-.99-2.43-2.78-7.87-.86-13.71,2.27-6.92,8.37-10.23,12.86-12.57,16.54-8.66,35.59-5.07,43.3-3.19,6.71,1.64,16.41,3.97,28.12,6.62,25.62,5.81,38.43,8.71,44.57,9.43,9.09,1.06,41.49,4.84,66.29,1.71,2.51-.32,8.61-1.17,14.57,2,7.04,3.74,10.23,11.12,11.71,15.71,9.14,34.57,18.29,69.14,27.43,103.71,.84,2.35,1.5,5.52,.57,8.86,0,0-1.08,3.91-4.86,7.14-5.62,4.81-55.49,27.96-124.57,58-2.69,.66-7.56,1.47-13.43,.29-4.81-.97-8.4-2.89-10.57-4.29Z"/>
  </g>
  <g id="g" data-name="Слой 4">
    <path class="i" d="M209.89,400.93c-25.98-50.48-51.95-100.96-77.93-151.44-.81-2.04-2.28-6.63-.7-11.56,1.86-5.83,6.86-8.62,10.53-10.59,13.55-7.29,29.15-4.28,35.47-2.69,5.5,1.38,13.44,3.34,23.04,5.58,20.98,4.89,31.48,7.34,36.51,7.94,7.44,.89,33.98,4.08,54.29,1.44,2.06-.27,7.05-.98,11.93,1.69,5.76,3.15,8.38,9.37,9.59,13.24,7.49,29.13,14.98,58.26,22.47,87.39,.69,1.98,1.22,4.65,.47,7.46,0,0-.89,3.3-3.98,6.02-4.61,4.06-45.45,23.56-102.03,48.87-2.2,.55-6.19,1.24-11,.24-3.94-.82-6.88-2.44-8.66-3.61Z"/>
  </g>
</svg>